<svg xmlns="http://www.w3.org/2000/svg" viewBox="0 0 141.87 9.81"><defs><style>.cls-1{fill:#fff;}</style></defs><title>A_LOVE_LETTER</title><g id="Layer_2" data-name="Layer 2"><g id="Layer_1-2" data-name="Layer 1"><path class="cls-1" d="M5,0a.08.08,0,0,1,.08.05l4,9.63a.08.08,0,0,1,0,.08.09.09,0,0,1-.08,0H7.95a.08.08,0,0,1-.08-.05L6.3,6H2.83L1.27,9.75a.08.08,0,0,1-.08.05H.09a.09.09,0,0,1-.08,0,.08.08,0,0,1,0-.08L4,.05A.09.09,0,0,1,4.09,0ZM5.8,4.79l-1.23-3-1.24,3Z"/><path class="cls-1" d="M19.5,8.56a.08.08,0,0,1,.09.09V9.72a.08.08,0,0,1-.09.09H14.06A.08.08,0,0,1,14,9.72V.1A.08.08,0,0,1,14.06,0h1.07a.08.08,0,0,1,.09.09V8.56Z"/><path class="cls-1" d="M25.58,0A4.72,4.72,0,0,1,29,1.46a4.72,4.72,0,0,1,1.44,3.46A4.72,4.72,0,0,1,29,8.37a4.89,4.89,0,0,1-6.92,0,4.72,4.72,0,0,1-1.44-3.46,4.72,4.72,0,0,1,1.44-3.46A4.72,4.72,0,0,1,25.58,0Zm0,8.54a3.53,3.53,0,0,0,2.58-1.07,3.51,3.51,0,0,0,1.07-2.58,3.52,3.52,0,0,0-1.07-2.58,3.65,3.65,0,0,0-5.15,0,3.52,3.52,0,0,0-1.07,2.58A3.51,3.51,0,0,0,23,7.49,3.51,3.51,0,0,0,25.58,8.56Z"/><path class="cls-1" d="M37.93.11A.13.13,0,0,1,38.06,0h1a.13.13,0,0,1,.11.05.13.13,0,0,1,0,.12L35.88,9.72a.12.12,0,0,1-.12.09h-.87a.12.12,0,0,1-.12-.09L31.5.2a.13.13,0,0,1,0-.12A.13.13,0,0,1,31.63,0h1a.12.12,0,0,1,.12.09l2.6,7.58Z"/><path class="cls-1" d="M47.07,0a.08.08,0,0,1,.09.09V1.18a.08.08,0,0,1-.09.09h-5.2v3h3.77a.08.08,0,0,1,.09.09V5.45a.08.08,0,0,1-.09.09H41.87v3h5.2a.08.08,0,0,1,.09.09V9.72a.08.08,0,0,1-.09.09H40.72a.08.08,0,0,1-.09-.09V.11A.08.08,0,0,1,40.72,0Z"/><path class="cls-1" d="M58.37,8.56a.08.08,0,0,1,.09.09V9.72a.08.08,0,0,1-.09.09H52.93a.08.08,0,0,1-.09-.09V.1A.08.08,0,0,1,52.93,0H54a.08.08,0,0,1,.09.09V8.56Z"/><path class="cls-1" d="M66.71,0a.08.08,0,0,1,.09.09V1.18a.08.08,0,0,1-.09.09H61.5v3h3.77a.08.08,0,0,1,.09.09V5.45a.08.08,0,0,1-.09.09H61.5v3h5.2a.08.08,0,0,1,.09.09V9.72a.08.08,0,0,1-.09.09H60.35a.08.08,0,0,1-.09-.09V.11A.08.08,0,0,1,60.35,0Z"/><path class="cls-1" d="M74.41,0a.08.08,0,0,1,.09.09V1.18a.08.08,0,0,1-.09.09H71.85V9.72a.08.08,0,0,1-.09.09H70.69a.08.08,0,0,1-.09-.09V1.26H68a.08.08,0,0,1-.09-.09V.11A.08.08,0,0,1,68,0Z"/><path class="cls-1" d="M81.93,0A.08.08,0,0,1,82,.11V1.18a.08.08,0,0,1-.09.09H79.37V9.72a.08.08,0,0,1-.09.09H78.21a.08.08,0,0,1-.09-.09V1.26H75.55a.08.08,0,0,1-.09-.09V.11A.08.08,0,0,1,75.55,0Z"/><path class="cls-1" d="M90.21,0a.08.08,0,0,1,.09.09V1.18a.08.08,0,0,1-.09.09H85v3h3.77a.08.08,0,0,1,.09.09V5.45a.08.08,0,0,1-.09.09H85v3h5.2a.08.08,0,0,1,.09.09V9.72a.08.08,0,0,1-.09.09H83.85a.08.08,0,0,1-.09-.09V.11A.08.08,0,0,1,83.85,0Z"/><path class="cls-1" d="M98.82,9.68a.09.09,0,0,1,0,.09.08.08,0,0,1-.08,0H97.52a.07.07,0,0,1-.08,0l-2.3-4.19H93.47V9.7a.08.08,0,0,1-.09.09H92.31a.08.08,0,0,1-.09-.09V.1A.08.08,0,0,1,92.31,0h3.6a2.68,2.68,0,0,1,2,.84,2.67,2.67,0,0,1,.79,2A2.69,2.69,0,0,1,98,4.55a2.82,2.82,0,0,1-1.52.93ZM95.91,4.32A1.48,1.48,0,0,0,97,3.87a1.47,1.47,0,0,0,.45-1.08,1.53,1.53,0,0,0-1.54-1.53H93.47V4.32Z"/><path class="cls-1" d="M109.73,0a.08.08,0,0,1,.09.09V1.18a.08.08,0,0,1-.09.09h-2.56V9.72a.08.08,0,0,1-.09.09H106a.08.08,0,0,1-.09-.09V1.26h-2.57a.08.08,0,0,1-.09-.09V.11a.08.08,0,0,1,.09-.09Z"/><path class="cls-1" d="M115.75,0a4.72,4.72,0,0,1,3.46,1.44,4.72,4.72,0,0,1,1.44,3.46,4.72,4.72,0,0,1-1.44,3.46,4.89,4.89,0,0,1-6.92,0,4.72,4.72,0,0,1-1.44-3.46,4.72,4.72,0,0,1,1.44-3.46A4.72,4.72,0,0,1,115.75,0Zm0,8.54a3.53,3.53,0,0,0,2.58-1.07,3.51,3.51,0,0,0,1.07-2.58,3.52,3.52,0,0,0-1.07-2.58,3.65,3.65,0,0,0-5.15,0,3.52,3.52,0,0,0-1.07,2.58,3.51,3.51,0,0,0,1.07,2.58A3.51,3.51,0,0,0,115.75,8.56Z"/><path class="cls-1" d="M132.81,0a.08.08,0,0,1,.09.09V9.72a.08.08,0,0,1-.09.09h-.49a.09.09,0,0,1-.07,0l-5.22-7V9.72a.08.08,0,0,1-.09.09h-1a.08.08,0,0,1-.09-.09V.1a.08.08,0,0,1,.09-.09h.45a.08.08,0,0,1,.07,0l5.25,7V.1A.08.08,0,0,1,131.8,0Z"/><path class="cls-1" d="M141.78,0a.08.08,0,0,1,.08,0,.08.08,0,0,1,0,.09l-2.91,4.63V9.72a.08.08,0,0,1-.09.09h-1a.08.08,0,0,1-.09-.09V4.78L134.86.16a.08.08,0,0,1,0-.09.07.07,0,0,1,.08,0h1.19a.08.08,0,0,1,.08,0l2.15,3.42L140.5.07a.09.09,0,0,1,.08,0Z"/></g></g></svg>