<svg xmlns="http://www.w3.org/2000/svg" xmlns:xlink="http://www.w3.org/1999/xlink" viewBox="0 0 166.4 12.5"><defs><style>.cls-1{fill:#fff;}.cls-2{opacity:0.4;}.cls-3{fill:url(#linear-gradient);}.cls-4{fill:url(#linear-gradient-2);}.cls-5{fill:url(#linear-gradient-3);}.cls-6{fill:url(#linear-gradient-4);}.cls-7{fill:url(#linear-gradient-5);}.cls-8{fill:url(#linear-gradient-6);}.cls-9{fill:url(#linear-gradient-7);}.cls-10{fill:url(#linear-gradient-8);}.cls-11{fill:url(#linear-gradient-9);}.cls-12{fill:url(#linear-gradient-10);}.cls-13{fill:url(#linear-gradient-11);}.cls-14{fill:url(#linear-gradient-12);}.cls-15{fill:url(#linear-gradient-13);}.cls-16{fill:url(#linear-gradient-14);}.cls-17{fill:url(#linear-gradient-15);}.cls-18{fill:url(#linear-gradient-16);}</style><linearGradient id="linear-gradient" x1="5.8" y1="1.57" x2="5.8" y2="14" gradientTransform="matrix(1, 0, 0, -1, 0, 14)" gradientUnits="userSpaceOnUse"><stop offset="0" stop-color="#fff"/><stop offset="0.16" stop-color="#fbfbfc"/><stop offset="0.34" stop-color="#edeff4"/><stop offset="0.52" stop-color="#d7dae6"/><stop offset="0.71" stop-color="#b9bed2"/><stop offset="0.9" stop-color="#929ab9"/><stop offset="1" stop-color="#7b85aa"/></linearGradient><linearGradient id="linear-gradient-2" x1="15.45" y1="1.57" x2="15.45" y2="14.01" xlink:href="#linear-gradient"/><linearGradient id="linear-gradient-3" x1="25.25" y1="1.57" x2="25.25" y2="14" xlink:href="#linear-gradient"/><linearGradient id="linear-gradient-4" x1="34.2" y1="1.57" x2="34.2" y2="14" xlink:href="#linear-gradient"/><linearGradient id="linear-gradient-5" x1="41.75" y1="1.57" x2="41.75" y2="14" xlink:href="#linear-gradient"/><linearGradient id="linear-gradient-6" x1="52.3" y1="1.57" x2="52.3" y2="14" xlink:href="#linear-gradient"/><linearGradient id="linear-gradient-7" x1="64.91" y1="1.63" x2="64.91" y2="14" xlink:href="#linear-gradient"/><linearGradient id="linear-gradient-8" x1="76.15" y1="1.57" x2="76.15" y2="14" xlink:href="#linear-gradient"/><linearGradient id="linear-gradient-9" x1="86.45" y1="1.6" x2="86.45" y2="14.01" xlink:href="#linear-gradient"/><linearGradient id="linear-gradient-10" x1="103" y1="1.57" x2="103" y2="14" xlink:href="#linear-gradient"/><linearGradient id="linear-gradient-11" x1="115.3" y1="1.58" x2="115.3" y2="14" xlink:href="#linear-gradient"/><linearGradient id="linear-gradient-12" x1="126.65" y1="1.57" x2="126.65" y2="13.98" xlink:href="#linear-gradient"/><linearGradient id="linear-gradient-13" x1="134.5" y1="1.57" x2="134.5" y2="14" xlink:href="#linear-gradient"/><linearGradient id="linear-gradient-14" x1="142.65" y1="1.57" x2="142.65" y2="13.98" xlink:href="#linear-gradient"/><linearGradient id="linear-gradient-15" x1="156.9" y1="1.57" x2="156.9" y2="14" xlink:href="#linear-gradient"/><linearGradient id="linear-gradient-16" x1="164.88" y1="1.57" x2="164.88" y2="13.94" xlink:href="#linear-gradient"/></defs><title>AVAILABLE_APRIL_21</title><g id="Layer_2" data-name="Layer 2"><g id="Layer_1-2" data-name="Layer 1"><g id="Layer_1-2-2" data-name="Layer 1-2"><path class="cls-1" d="M6.4,0h0l5.2,12.3v.1a.1.1,0,0,0-.1.1H10.1a.1.1,0,0,1-.1-.1L8,7.6H3.6l-2,4.8-.1.1H.1a.1.1,0,0,1-.1-.1v-.1L5.1.1c0-.1,0-.1.1-.1Zm1,6.1L5.8,2.3,4.2,6.1Z"/><path class="cls-1" d="M18.8.1A.35.35,0,0,1,19,0h1.2c.1,0,.1,0,.1.1V.3L16.1,12.4c0,.1-.1.1-.2.1H14.8c-.1,0-.1,0-.2-.1L10.6.2V0H12c.1,0,.1,0,.2.1l3.3,9.6Z"/><path class="cls-1" d="M25.8,0a.1.1,0,0,1,.1.1L31,12.3v.1a.1.1,0,0,0-.1.1H29.5a.1.1,0,0,1-.1-.1l-2-4.8H23l-2,4.8-.1.1H19.6a.1.1,0,0,1-.1-.1v-.1L24.6.1l.1-.1Zm1,6.1L25.2,2.3,23.6,6.1Z"/><path class="cls-1" d="M34.9,0c.1,0,.1,0,.1.1h0V12.3c0,.1,0,.1-.1.1H33.5c-.1,0-.1,0-.1-.1h0V0h1.5Z"/><path class="cls-1" d="M45.2,10.9c.1,0,.1,0,.1.1h0v1.4c0,.1,0,.1-.1.1H38.3c-.1,0-.1,0-.1-.1h0V.1c0-.1,0-.1.1-.1h1.4c.1,0,.1,0,.1.1h0V10.8h5.4Z"/><path class="cls-1" d="M52.9,0h0l5.2,12.3v.1a.1.1,0,0,0-.1.1H56.6a.1.1,0,0,1-.1-.1l-2-4.8H50.1l-2,4.8-.1.1H46.6a.1.1,0,0,1-.1-.1v-.1L51.6.1l.1-.1Zm1,6.1L52.3,2.3,50.7,6.1Z"/><path class="cls-1" d="M67.5,5.7A4,4,0,0,1,68.8,7a3.13,3.13,0,0,1,.4,1.9,3.25,3.25,0,0,1-1.1,2.5,3.54,3.54,0,0,1-2.6,1H60.7c-.1,0-.1,0-.1-.1h0V0h4.6a3.26,3.26,0,0,1,2.3,1,3.26,3.26,0,0,1,1,2.3A3.49,3.49,0,0,1,67.5,5.7Zm-5.4-.6h3a1.66,1.66,0,0,0,1.2-.5,1.85,1.85,0,0,0,.5-1.2,1.66,1.66,0,0,0-.5-1.2,1.85,1.85,0,0,0-1.2-.5h-3Zm3.4,5.8a2.05,2.05,0,0,0,2.1-2.1,2.05,2.05,0,0,0-2.1-2.1H62.1v4.2Z"/><path class="cls-1" d="M79.6,10.9c.1,0,.1,0,.1.1h0v1.4c0,.1,0,.1-.1.1H72.7c-.1,0-.1,0-.1-.1h0V.1c0-.1,0-.1.1-.1h1.4c.1,0,.1,0,.1.1h0V10.8h5.4Z"/><path class="cls-1" d="M90.5,0c.1,0,.1,0,.1.1h0V1.5c0,.1,0,.1-.1.1H83.9V5.4h4.8c.1,0,.1,0,.1.1h0V6.9c0,.1,0,.1-.1.1H83.9v3.8h6.6c.1,0,.1,0,.1.1h0v1.4c0,.1,0,.1-.1.1H82.4c-.1,0-.1,0-.1-.1h0V0h8.2Z"/><path class="cls-1" d="M103.6,0h0l5.2,12.3v.1a.1.1,0,0,0-.1.1h-1.4a.1.1,0,0,1-.1-.1l-2-4.8h-4.4l-2,4.8-.1.1H97.3a.1.1,0,0,1-.1-.1v-.1L102.3.1l.1-.1Zm1,6.1L103,2.3l-1.6,3.8Z"/><path class="cls-1" d="M115.9,0a3.25,3.25,0,0,1,2.5,1.1,3.54,3.54,0,0,1,1,2.6,3.19,3.19,0,0,1-1.1,2.4,3.47,3.47,0,0,1-2.5,1h-3v5.2c0,.1,0,.1-.1.1h-1.4c-.1,0-.1,0-.1-.1h0V.1c0-.1,0-.1.1-.1Zm0,5.5a2,2,0,0,0,2-2,2,2,0,0,0-.6-1.4,2,2,0,0,0-1.4-.6h-3.2v4Z"/><path class="cls-1" d="M130.8,12.3v.1l-.1.1h-1.5a.1.1,0,0,1-.1-.1l-2.9-5.3H124v5.2c0,.1,0,.1-.1.1h-1.3c-.1,0-.1,0-.1-.1h0V.1c0-.1,0-.1.1-.1h4.6a3.25,3.25,0,0,1,2.5,1.1,3.54,3.54,0,0,1,1,2.6,3.23,3.23,0,0,1-.8,2.1A3.87,3.87,0,0,1,128,7Zm-3.7-6.8a2,2,0,0,0,1.4-.6,2,2,0,0,0,.6-1.4,1.9,1.9,0,0,0-1.9-1.9H124V5.5Z"/><path class="cls-1" d="M135.2,0c.1,0,.1,0,.1.1h0V12.3c0,.1,0,.1-.1.1h-1.4c-.1,0-.1,0-.1-.1h0V.1c0-.1,0-.1.1-.1h1.4Z"/><path class="cls-1" d="M146.1,10.9c.1,0,.1,0,.1.1h0v1.4c0,.1,0,.1-.1.1h-6.9c-.1,0-.1,0-.1-.1h0V.1c0-.1,0-.1.1-.1h1.4c.1,0,.1,0,.1.1h0V10.8h5.4Z"/><path class="cls-1" d="M160.6,10.9c.1,0,.1,0,.1.1v1.3c0,.1,0,.1-.1.1h-7.4a.1.1,0,0,1-.1-.1v-.1l5.4-8.1a1.49,1.49,0,0,0,.2-.9,1.9,1.9,0,0,0-.5-1.3,1.82,1.82,0,0,0-2.3-.2,2.18,2.18,0,0,0-.7.9.1.1,0,0,1-.1.1h0l-1.2-.4a.1.1,0,0,1-.1-.1h0A3.11,3.11,0,0,1,155,.6a3.35,3.35,0,0,1,4.3.4,3.26,3.26,0,0,1,1,2.3,3.37,3.37,0,0,1-.5,1.7h0l-4,5.9Z"/><path class="cls-1" d="M165.1.1h1.2c.1,0,.1,0,.1.1h0V12.3c0,.1,0,.1-.1.1H165c-.1,0-.1,0-.1-.1h0V2.3l-.5.5s-.1.1-.1,0h0l-.9-.9s-.1-.1,0-.1h0Z"/></g><g id="Layer_1-2-3" data-name="Layer 1-2" class="cls-2"><path class="cls-3" d="M6.4,0h0l5.2,12.3v.1a.1.1,0,0,0-.1.1H10.1a.1.1,0,0,1-.1-.1L8,7.6H3.6l-2,4.8-.1.1H.1a.1.1,0,0,1-.1-.1v-.1L5.1.1c0-.1,0-.1.1-.1Zm1,6.1L5.8,2.3,4.2,6.1Z"/><path class="cls-4" d="M18.8.1A.35.35,0,0,1,19,0h1.2c.1,0,.1,0,.1.1V.3L16.1,12.4c0,.1-.1.1-.2.1H14.8c-.1,0-.1,0-.2-.1L10.6.2V0H12c.1,0,.1,0,.2.1l3.3,9.6Z"/><path class="cls-5" d="M25.8,0a.1.1,0,0,1,.1.1L31,12.3v.1a.1.1,0,0,0-.1.1H29.5a.1.1,0,0,1-.1-.1l-2-4.8H23l-2,4.8-.1.1H19.6a.1.1,0,0,1-.1-.1v-.1L24.6.1l.1-.1Zm1,6.1L25.2,2.3,23.6,6.1Z"/><path class="cls-6" d="M34.9,0c.1,0,.1,0,.1.1h0V12.3c0,.1,0,.1-.1.1H33.5c-.1,0-.1,0-.1-.1h0V0h1.5Z"/><path class="cls-7" d="M45.2,10.9c.1,0,.1,0,.1.1h0v1.4c0,.1,0,.1-.1.1H38.3c-.1,0-.1,0-.1-.1h0V.1c0-.1,0-.1.1-.1h1.4c.1,0,.1,0,.1.1h0V10.8h5.4Z"/><path class="cls-8" d="M52.9,0h0l5.2,12.3v.1a.1.1,0,0,0-.1.1H56.6a.1.1,0,0,1-.1-.1l-2-4.8H50.1l-2,4.8-.1.1H46.6a.1.1,0,0,1-.1-.1v-.1L51.6.1l.1-.1Zm1,6.1L52.3,2.3,50.7,6.1Z"/><path class="cls-9" d="M67.5,5.7A4,4,0,0,1,68.8,7a3.13,3.13,0,0,1,.4,1.9,3.25,3.25,0,0,1-1.1,2.5,3.54,3.54,0,0,1-2.6,1H60.7c-.1,0-.1,0-.1-.1h0V0h4.6a3.26,3.26,0,0,1,2.3,1,3.26,3.26,0,0,1,1,2.3A3.49,3.49,0,0,1,67.5,5.7Zm-5.4-.6h3a1.66,1.66,0,0,0,1.2-.5,1.85,1.85,0,0,0,.5-1.2,1.66,1.66,0,0,0-.5-1.2,1.85,1.85,0,0,0-1.2-.5h-3Zm3.4,5.8a2.05,2.05,0,0,0,2.1-2.1,2.05,2.05,0,0,0-2.1-2.1H62.1v4.2Z"/><path class="cls-10" d="M79.6,10.9c.1,0,.1,0,.1.1h0v1.4c0,.1,0,.1-.1.1H72.7c-.1,0-.1,0-.1-.1h0V.1c0-.1,0-.1.1-.1h1.4c.1,0,.1,0,.1.1h0V10.8h5.4Z"/><path class="cls-11" d="M90.5,0c.1,0,.1,0,.1.1h0V1.5c0,.1,0,.1-.1.1H83.9V5.4h4.8c.1,0,.1,0,.1.1h0V6.9c0,.1,0,.1-.1.1H83.9v3.8h6.6c.1,0,.1,0,.1.1h0v1.4c0,.1,0,.1-.1.1H82.4c-.1,0-.1,0-.1-.1h0V0h8.2Z"/><path class="cls-12" d="M103.6,0h0l5.2,12.3v.1a.1.1,0,0,0-.1.1h-1.4a.1.1,0,0,1-.1-.1l-2-4.8h-4.4l-2,4.8-.1.1H97.3a.1.1,0,0,1-.1-.1v-.1L102.3.1l.1-.1Zm1,6.1L103,2.3l-1.6,3.8Z"/><path class="cls-13" d="M115.9,0a3.25,3.25,0,0,1,2.5,1.1,3.54,3.54,0,0,1,1,2.6,3.19,3.19,0,0,1-1.1,2.4,3.47,3.47,0,0,1-2.5,1h-3v5.2c0,.1,0,.1-.1.1h-1.4c-.1,0-.1,0-.1-.1h0V.1c0-.1,0-.1.1-.1Zm0,5.5a2,2,0,0,0,2-2,2,2,0,0,0-.6-1.4,2,2,0,0,0-1.4-.6h-3.2v4Z"/><path class="cls-14" d="M130.8,12.3v.1l-.1.1h-1.5a.1.1,0,0,1-.1-.1l-2.9-5.3H124v5.2c0,.1,0,.1-.1.1h-1.3c-.1,0-.1,0-.1-.1h0V.1c0-.1,0-.1.1-.1h4.6a3.25,3.25,0,0,1,2.5,1.1,3.54,3.54,0,0,1,1,2.6,3.23,3.23,0,0,1-.8,2.1A3.87,3.87,0,0,1,128,7Zm-3.7-6.8a2,2,0,0,0,1.4-.6,2,2,0,0,0,.6-1.4,1.9,1.9,0,0,0-1.9-1.9H124V5.5Z"/><path class="cls-15" d="M135.2,0c.1,0,.1,0,.1.1h0V12.3c0,.1,0,.1-.1.1h-1.4c-.1,0-.1,0-.1-.1h0V.1c0-.1,0-.1.1-.1h1.4Z"/><path class="cls-16" d="M146.1,10.9c.1,0,.1,0,.1.1h0v1.4c0,.1,0,.1-.1.1h-6.9c-.1,0-.1,0-.1-.1h0V.1c0-.1,0-.1.1-.1h1.4c.1,0,.1,0,.1.1h0V10.8h5.4Z"/><path class="cls-17" d="M160.6,10.9c.1,0,.1,0,.1.1v1.3c0,.1,0,.1-.1.1h-7.4a.1.1,0,0,1-.1-.1v-.1l5.4-8.1a1.49,1.49,0,0,0,.2-.9,1.9,1.9,0,0,0-.5-1.3,1.82,1.82,0,0,0-2.3-.2,2.18,2.18,0,0,0-.7.9.1.1,0,0,1-.1.1h0l-1.2-.4a.1.1,0,0,1-.1-.1h0A3.11,3.11,0,0,1,155,.6a3.35,3.35,0,0,1,4.3.4,3.26,3.26,0,0,1,1,2.3,3.37,3.37,0,0,1-.5,1.7h0l-4,5.9Z"/><path class="cls-18" d="M165.1.1h1.2c.1,0,.1,0,.1.1h0V12.3c0,.1,0,.1-.1.1H165c-.1,0-.1,0-.1-.1h0V2.3l-.5.5s-.1.1-.1,0h0l-.9-.9s-.1-.1,0-.1h0Z"/></g></g></g></svg>