<svg xmlns="http://www.w3.org/2000/svg" viewBox="0 0 141.85 6.43"><defs><style>.cls-1{fill:#848eb5;}</style></defs><title>FEAT_NEW_CLASSIC</title><g id="Layer_2" data-name="Layer 2"><g id="Layer_1-2" data-name="Layer 1"><path class="cls-1" d="M.82.83v2H3.25a.05.05,0,0,1,.06.06v.7a.05.05,0,0,1-.06.06H.82V6.38a.05.05,0,0,1-.06.06H.06A.05.05,0,0,1,0,6.38V.06A.05.05,0,0,1,.06,0H4A.05.05,0,0,1,4,.06v.7A.05.05,0,0,1,4,.83Z"/><path class="cls-1" d="M9.41,0a.05.05,0,0,1,.06.06v.7a.05.05,0,0,1-.06.06H6v2H8.47a.05.05,0,0,1,.06.06v.7a.05.05,0,0,1-.06.06H6v2H9.41a.05.05,0,0,1,.06.06v.7a.05.05,0,0,1-.06.06H5.24a.05.05,0,0,1-.06-.06V.07A.05.05,0,0,1,5.24,0Z"/><path class="cls-1" d="M13.52,0a.05.05,0,0,1,.05,0L16.2,6.35a.05.05,0,0,1,0,.05.06.06,0,0,1,0,0h-.72a.05.05,0,0,1-.05,0l-1-2.47H12.08L11,6.4a.05.05,0,0,1-.05,0h-.72a.05.05,0,0,1,0,0,.05.05,0,0,1,0-.05L12.85,0a.06.06,0,0,1,.05,0ZM14,3.14l-.81-1.95L12.4,3.14Z"/><path class="cls-1" d="M21.2,0a.05.05,0,0,1,.06.06v.7a.05.05,0,0,1-.06.06H19.52V6.38a.05.05,0,0,1-.06.06h-.7a.05.05,0,0,1-.06-.06V.83H17A.05.05,0,0,1,17,.77V.07A.05.05,0,0,1,17,0Z"/><path class="cls-1" d="M22.27,6.31A.43.43,0,0,1,22.15,6a.41.41,0,0,1,.13-.3.43.43,0,0,1,.31-.13A.43.43,0,0,1,23,6a.43.43,0,0,1-.13.31.41.41,0,0,1-.3.13A.43.43,0,0,1,22.27,6.31Z"/><path class="cls-1" d="M31.72,0a.05.05,0,0,1,.06.06V6.38a.05.05,0,0,1-.06.06H31.4l0,0L27.94,1.84V6.38a.05.05,0,0,1-.06.06h-.66a.05.05,0,0,1-.06-.06V.07A.05.05,0,0,1,27.21,0h.3a.05.05,0,0,1,0,0L31,4.63V.07A.05.05,0,0,1,31.06,0Z"/><path class="cls-1" d="M38,0A.05.05,0,0,1,38,.07v.7A.05.05,0,0,1,38,.83H34.56v2H37a.05.05,0,0,1,.06.06v.7a.05.05,0,0,1-.06.06H34.56v2H38a.05.05,0,0,1,.06.06v.7a.05.05,0,0,1-.06.06H33.8a.05.05,0,0,1-.06-.06V.07A.05.05,0,0,1,33.8,0Z"/><path class="cls-1" d="M44.86,0s.06,0,.06.06l-.43,6.3a.05.05,0,0,1-.06.05h-.58a.05.05,0,0,1,0,0L42.15,3.85,40.5,6.41a.05.05,0,0,1,0,0h-.59a.05.05,0,0,1-.06-.05L39.38.08s0-.06.06-.06h.66a.05.05,0,0,1,.06.05L40.48,5,42,2.71a.06.06,0,0,1,0,0h.26a.06.06,0,0,1,0,0L43.81,5,44.15.07A.05.05,0,0,1,44.2,0Z"/><path class="cls-1" d="M51.85,0a.05.05,0,0,1,.05,0l2.62,6.32a.05.05,0,0,1,0,.05.06.06,0,0,1,0,0h-.72a.05.05,0,0,1-.05,0l-1-2.47H50.4l-1,2.47a.05.05,0,0,1-.05,0H48.6a.05.05,0,0,1,0,0,.05.05,0,0,1,0-.05L51.17,0a.06.06,0,0,1,.05,0Zm.5,3.14-.81-1.95-.81,1.95Z"/><path class="cls-1" d="M60.36,0a.05.05,0,0,1,.06.06V6.38a.05.05,0,0,1-.06.06H60l0,0L56.58,1.84V6.38a.05.05,0,0,1-.06.06h-.66a.05.05,0,0,1-.06-.06V.07A.05.05,0,0,1,55.85,0h.3a.05.05,0,0,1,0,0l3.44,4.6V.07A.05.05,0,0,1,59.7,0Z"/><path class="cls-1" d="M64.48,0a3.1,3.1,0,0,1,2.29,1,3.09,3.09,0,0,1,.92,2.31,3.08,3.08,0,0,1-1,2.24,3.19,3.19,0,0,1-2.29.92h-2a.05.05,0,0,1-.06-.06V.06A.05.05,0,0,1,62.44,0Zm0,5.61a2.3,2.3,0,0,0,1.69-.7,2.31,2.31,0,0,0,.7-1.69,2.31,2.31,0,0,0-.7-1.69,2.31,2.31,0,0,0-1.69-.7H63.2V5.61Z"/><path class="cls-1" d="M76.61,5.83a.05.05,0,0,1,0,.08,3.12,3.12,0,0,1-1.75.52,3.18,3.18,0,0,1-2.33-1A3.09,3.09,0,0,1,71.64,3,3.1,3.1,0,0,1,72.55,1a3.1,3.1,0,0,1,2-1,3.13,3.13,0,0,1,2,.51.05.05,0,0,1,0,.08l-.39.58a.05.05,0,0,1-.08,0,2.38,2.38,0,0,0-3,.38,2.33,2.33,0,0,0-.65,1.6,2.3,2.3,0,0,0,.7,1.71,2.3,2.3,0,0,0,1.7.71,2.33,2.33,0,0,0,1.29-.38.05.05,0,0,1,.08,0Z"/><path class="cls-1" d="M81.54,5.61a.05.05,0,0,1,.06.06v.7a.05.05,0,0,1-.06.06H78a.05.05,0,0,1-.06-.06V.07A.05.05,0,0,1,78,0h.7a.05.05,0,0,1,.06.06V5.61Z"/><path class="cls-1" d="M85.57,0a.05.05,0,0,1,.05,0l2.62,6.32a.05.05,0,0,1,0,.05.06.06,0,0,1,0,0h-.72a.05.05,0,0,1-.05,0l-1-2.47H84.12l-1,2.47a.05.05,0,0,1-.05,0h-.72a.05.05,0,0,1,0,0,.05.05,0,0,1,0-.05L84.89,0a.06.06,0,0,1,.05,0Zm.5,3.14-.81-1.95-.81,1.95Z"/><path class="cls-1" d="M91.44,2.73l.13.06.13.06L92,3a3.27,3.27,0,0,1,.57.38,1.63,1.63,0,0,1,.62,1.29A1.61,1.61,0,0,1,92.62,6a2.27,2.27,0,0,1-1.52.48,3,3,0,0,1-1.34-.31,2.89,2.89,0,0,1-.41-.26l-.14-.11-.09-.08a.05.05,0,0,1,0-.08l.51-.48a.05.05,0,0,1,.08,0l.07.06.1.07a2.11,2.11,0,0,0,.29.17,2.14,2.14,0,0,0,.93.21q1.27,0,1.27-1A.84.84,0,0,0,92,4a3.92,3.92,0,0,0-.94-.53h0l-.21-.1-.11,0-.12-.05-.26-.13a2.74,2.74,0,0,1-.51-.34,1.48,1.48,0,0,1-.56-1.17A1.46,1.46,0,0,1,89.83.45,2,2,0,0,1,91.21,0,2.65,2.65,0,0,1,92.4.29a2.5,2.5,0,0,1,.37.23l.13.09L93,.69s0,.06,0,.09L92.73,1l-.26.24a.06.06,0,0,1-.08,0l-.06-.05-.09-.06L92,1a1.82,1.82,0,0,0-.79-.17q-1.07,0-1.07.8a.7.7,0,0,0,.27.55,3.34,3.34,0,0,0,.81.45h0Z"/><path class="cls-1" d="M96.72,2.73l.13.06.13.06.29.14a3.27,3.27,0,0,1,.57.38,1.63,1.63,0,0,1,.62,1.29A1.61,1.61,0,0,1,97.91,6a2.27,2.27,0,0,1-1.52.48A3,3,0,0,1,95,6.12a2.89,2.89,0,0,1-.41-.26l-.14-.11-.09-.08a.05.05,0,0,1,0-.08l.51-.48a.05.05,0,0,1,.08,0l.07.06.1.07a2.11,2.11,0,0,0,.29.17,2.14,2.14,0,0,0,.93.21q1.27,0,1.27-1A.84.84,0,0,0,97.33,4a3.92,3.92,0,0,0-.94-.53h0l-.21-.1-.11,0-.12-.05-.26-.13a2.74,2.74,0,0,1-.51-.34,1.48,1.48,0,0,1-.56-1.17A1.46,1.46,0,0,1,95.11.45,2,2,0,0,1,96.49,0a2.65,2.65,0,0,1,1.19.28,2.5,2.5,0,0,1,.37.23l.13.09.08.08s0,.06,0,.09L98,1l-.26.24a.06.06,0,0,1-.08,0l-.06-.05-.09-.06L97.28,1a1.82,1.82,0,0,0-.79-.17q-1.07,0-1.07.8a.7.7,0,0,0,.27.55,3.34,3.34,0,0,0,.81.45h0Z"/><path class="cls-1" d="M100.85,0a.05.05,0,0,1,.06.06v6.3a.05.05,0,0,1-.06.06h-.7a.05.05,0,0,1-.06-.06V.07a.05.05,0,0,1,.06-.06Z"/><path class="cls-1" d="M107.8,5.83a.05.05,0,0,1,0,.08,3.12,3.12,0,0,1-1.75.52,3.18,3.18,0,0,1-2.33-1A3.09,3.09,0,0,1,102.82,3,3.1,3.1,0,0,1,103.74,1a3.1,3.1,0,0,1,2-1,3.13,3.13,0,0,1,2,.51.05.05,0,0,1,0,.08l-.39.58a.05.05,0,0,1-.08,0,2.38,2.38,0,0,0-3,.38,2.33,2.33,0,0,0-.65,1.6,2.3,2.3,0,0,0,.7,1.71,2.3,2.3,0,0,0,1.7.71,2.33,2.33,0,0,0,1.29-.38.05.05,0,0,1,.08,0Z"/><path class="cls-1" d="M113.67,2.73l.13.06.13.06.29.14a3.27,3.27,0,0,1,.57.38,1.63,1.63,0,0,1,.62,1.29,1.61,1.61,0,0,1-.56,1.3,2.27,2.27,0,0,1-1.52.48A3,3,0,0,1,112,6.12a2.89,2.89,0,0,1-.41-.26l-.14-.11-.09-.08a.05.05,0,0,1,0-.08l.51-.48a.05.05,0,0,1,.08,0l.07.06.1.07a2.11,2.11,0,0,0,.29.17,2.14,2.14,0,0,0,.93.21q1.27,0,1.27-1a.84.84,0,0,0-.32-.65,3.92,3.92,0,0,0-.94-.53h0l-.21-.1-.11,0-.12-.05-.26-.13a2.74,2.74,0,0,1-.51-.34,1.48,1.48,0,0,1-.56-1.17,1.46,1.46,0,0,1,.51-1.18A2,2,0,0,1,113.43,0a2.65,2.65,0,0,1,1.19.28,2.5,2.5,0,0,1,.37.23l.13.09.08.08s0,.06,0,.09L115,1l-.26.24a.06.06,0,0,1-.08,0l-.06-.05-.09-.06L114.22,1a1.82,1.82,0,0,0-.79-.17q-1.07,0-1.07.8a.7.7,0,0,0,.27.55,3.34,3.34,0,0,0,.81.45h0Z"/><path class="cls-1" d="M119.78,0A3.1,3.1,0,0,1,122,1,3.1,3.1,0,0,1,123,3.22,3.1,3.1,0,0,1,122,5.49a3.2,3.2,0,0,1-4.54,0,3.09,3.09,0,0,1-.94-2.27A3.09,3.09,0,0,1,117.51,1,3.1,3.1,0,0,1,119.78,0Zm0,5.6a2.31,2.31,0,0,0,1.69-.7,2.3,2.3,0,0,0,.7-1.69,2.31,2.31,0,0,0-.7-1.69,2.39,2.39,0,0,0-3.38,0,2.32,2.32,0,0,0-.7,1.69,2.3,2.3,0,0,0,.7,1.69A2.3,2.3,0,0,0,119.78,5.61Z"/><path class="cls-1" d="M129.24,0a.05.05,0,0,1,.06.06V6.38a.05.05,0,0,1-.06.06h-.32l0,0-3.42-4.57V6.38a.05.05,0,0,1-.06.06h-.66a.05.05,0,0,1-.06-.06V.07a.05.05,0,0,1,.06-.06h.3a.05.05,0,0,1,0,0l3.44,4.6V.07a.05.05,0,0,1,.06-.06Z"/><path class="cls-1" d="M136.38,3.12a.05.05,0,0,1,.06.06V5.33a.06.06,0,0,1,0,0l-.06.07a3.17,3.17,0,0,1-2.15,1,3.21,3.21,0,0,1-1.34-.21,3.21,3.21,0,0,1-1.81-1.81,3.15,3.15,0,0,1-.22-1.34,3.09,3.09,0,0,1,1-2.17A3.2,3.2,0,0,1,136.3,1s0,.05,0,.08l-.5.49a.05.05,0,0,1-.08,0,2.39,2.39,0,0,0-3.33,0A2.31,2.31,0,0,0,131.65,3a2.3,2.3,0,0,0,.63,1.82,2.38,2.38,0,0,0,3.33.16V3.93h-1a.05.05,0,0,1-.06-.06v-.7a.05.05,0,0,1,.06-.06Z"/><path class="cls-1" d="M140.1,2.73l.13.06.13.06.29.14a3.27,3.27,0,0,1,.57.38,1.63,1.63,0,0,1,.62,1.29,1.61,1.61,0,0,1-.56,1.3,2.27,2.27,0,0,1-1.52.48,3,3,0,0,1-1.34-.31,2.89,2.89,0,0,1-.41-.26l-.14-.11-.09-.08a.05.05,0,0,1,0-.08l.51-.48a.05.05,0,0,1,.08,0l.07.06.1.07a2.11,2.11,0,0,0,.29.17,2.14,2.14,0,0,0,.93.21q1.27,0,1.27-1a.84.84,0,0,0-.32-.65,3.92,3.92,0,0,0-.94-.53h0l-.21-.1-.11,0-.12-.05-.26-.13a2.74,2.74,0,0,1-.51-.34A1.48,1.48,0,0,1,138,1.63a1.46,1.46,0,0,1,.51-1.18A2,2,0,0,1,139.87,0a2.65,2.65,0,0,1,1.19.28,2.5,2.5,0,0,1,.37.23l.13.09.08.08s0,.06,0,.09l-.25.24-.26.24a.06.06,0,0,1-.08,0L141,1.21l-.09-.06L140.66,1a1.82,1.82,0,0,0-.79-.17q-1.07,0-1.07.8a.7.7,0,0,0,.27.55,3.34,3.34,0,0,0,.81.45h0Z"/></g></g></svg>