<svg xmlns="http://www.w3.org/2000/svg" viewBox="0 0 158.7 12.66"><defs><style>.cls-1{fill:#fff;}</style></defs><title>Pre-order_Now</title><g id="Layer_2" data-name="Layer 2"><g id="Layer_1-2" data-name="Layer 1"><path class="cls-1" d="M4.78,0A3.47,3.47,0,0,1,7.37,1.1a3.47,3.47,0,0,1,1,2.62A3.45,3.45,0,0,1,7.26,6.21a3.59,3.59,0,0,1-2.55,1H1.61v5.32a.1.1,0,0,1-.12.11H.11A.1.1,0,0,1,0,12.54V.12C0,.05,0,0,.11,0Zm0,5.58A1.92,1.92,0,0,0,6.19,5a1.91,1.91,0,0,0,.58-1.4,1.91,1.91,0,0,0-.58-1.4,1.92,1.92,0,0,0-1.41-.58H1.61v4Z"/><path class="cls-1" d="M21.67,12.49a.12.12,0,0,1,0,.11.1.1,0,0,1-.1.05H20a.1.1,0,0,1-.1-.06l-3-5.41H14.76v5.34a.1.1,0,0,1-.12.11H13.27a.1.1,0,0,1-.11-.11V.13A.1.1,0,0,1,13.27,0h4.64A3.46,3.46,0,0,1,20.49,1.1a3.44,3.44,0,0,1,1,2.6,3.48,3.48,0,0,1-.84,2.17,3.64,3.64,0,0,1-2,1.2ZM17.91,5.58A1.91,1.91,0,0,0,19.31,5,1.9,1.9,0,0,0,19.9,3.6a2,2,0,0,0-2-2H14.76v4Z"/><path class="cls-1" d="M34.33,0a.1.1,0,0,1,.12.11V1.52a.1.1,0,0,1-.12.11H27.61V5.54h4.86a.1.1,0,0,1,.12.11V7a.1.1,0,0,1-.12.11H27.61v3.91h6.71a.1.1,0,0,1,.12.11v1.38a.1.1,0,0,1-.12.11h-8.2a.1.1,0,0,1-.11-.11V.14A.1.1,0,0,1,26.12,0Z"/><path class="cls-1" d="M36.92,7.08A.1.1,0,0,1,36.81,7V5.7a.1.1,0,0,1,.11-.11h4.24a.1.1,0,0,1,.12.11V7a.1.1,0,0,1-.12.11Z"/><path class="cls-1" d="M50.92,0a6.08,6.08,0,0,1,4.46,1.85,6.08,6.08,0,0,1,1.85,4.46,6.08,6.08,0,0,1-1.85,4.46,6.3,6.3,0,0,1-8.93,0A6.09,6.09,0,0,1,44.6,6.34a6.09,6.09,0,0,1,1.85-4.46A6.09,6.09,0,0,1,50.92,0Zm0,11a4.55,4.55,0,0,0,3.33-1.38,4.53,4.53,0,0,0,1.38-3.33A4.55,4.55,0,0,0,54.25,3a4.71,4.71,0,0,0-6.65,0,4.55,4.55,0,0,0-1.38,3.33,4.53,4.53,0,0,0,1.38,3.33A4.53,4.53,0,0,0,50.92,11Z"/><path class="cls-1" d="M69.34,12.49a.12.12,0,0,1,0,.11.1.1,0,0,1-.1.05H67.66a.1.1,0,0,1-.1-.06l-3-5.41H62.43v5.34a.1.1,0,0,1-.12.11H60.94a.1.1,0,0,1-.11-.11V.13A.1.1,0,0,1,60.94,0h4.64A3.46,3.46,0,0,1,68.16,1.1a3.44,3.44,0,0,1,1,2.6,3.48,3.48,0,0,1-.84,2.17,3.64,3.64,0,0,1-2,1.2ZM65.58,5.58A1.91,1.91,0,0,0,67,5a1.9,1.9,0,0,0,.58-1.39,2,2,0,0,0-2-2H62.43v4Z"/><path class="cls-1" d="M77.43,0a6.1,6.1,0,0,1,4.52,1.9,6.07,6.07,0,0,1,1.82,4.55,6,6,0,0,1-1.94,4.4,6.28,6.28,0,0,1-4.5,1.81h-3.9a.1.1,0,0,1-.11-.11V.11A.1.1,0,0,1,73.43,0Zm0,11a4.53,4.53,0,0,0,3.33-1.39,4.55,4.55,0,0,0,1.38-3.33A4.55,4.55,0,0,0,80.77,3a4.54,4.54,0,0,0-3.33-1.38h-2.5V11Z"/><path class="cls-1" d="M96.08,0a.1.1,0,0,1,.12.11V1.52a.1.1,0,0,1-.12.11H89.37V5.54h4.86a.1.1,0,0,1,.12.11V7a.1.1,0,0,1-.12.11H89.37v3.91h6.71a.1.1,0,0,1,.12.11v1.38a.1.1,0,0,1-.12.11h-8.2a.1.1,0,0,1-.11-.11V.14A.1.1,0,0,1,87.88,0Z"/><path class="cls-1" d="M108.56,12.49a.12.12,0,0,1,0,.11.1.1,0,0,1-.1.05h-1.57a.1.1,0,0,1-.1-.06l-3-5.41h-2.17v5.34a.1.1,0,0,1-.12.11h-1.38a.1.1,0,0,1-.11-.11V.13a.1.1,0,0,1,.11-.11h4.64a3.46,3.46,0,0,1,2.58,1.08,3.44,3.44,0,0,1,1,2.6,3.48,3.48,0,0,1-.84,2.17,3.64,3.64,0,0,1-2,1.2ZM104.8,5.58A1.91,1.91,0,0,0,106.2,5a1.9,1.9,0,0,0,.58-1.39,2,2,0,0,0-2-2h-3.15v4Z"/><path class="cls-1" d="M128.43,0a.1.1,0,0,1,.11.11V12.54a.1.1,0,0,1-.11.11h-.63a.11.11,0,0,1-.09,0l-6.73-9v8.92a.1.1,0,0,1-.12.11h-1.31a.1.1,0,0,1-.11-.11V.13a.1.1,0,0,1,.11-.11h.58a.1.1,0,0,1,.09.05l6.77,9v-9a.1.1,0,0,1,.12-.11Z"/><path class="cls-1" d="M138.45,0a6.08,6.08,0,0,1,4.46,1.85,6.08,6.08,0,0,1,1.85,4.46,6.08,6.08,0,0,1-1.85,4.46,6.3,6.3,0,0,1-8.93,0,6.09,6.09,0,0,1-1.85-4.46A6.09,6.09,0,0,1,134,1.88,6.09,6.09,0,0,1,138.45,0Zm0,11a4.55,4.55,0,0,0,3.33-1.38,4.53,4.53,0,0,0,1.38-3.33A4.55,4.55,0,0,0,141.78,3a4.71,4.71,0,0,0-6.65,0,4.55,4.55,0,0,0-1.38,3.33,4.53,4.53,0,0,0,1.38,3.33A4.53,4.53,0,0,0,138.45,11Z"/><path class="cls-1" d="M158.59,0a.1.1,0,0,1,.11.12l-.85,12.39a.1.1,0,0,1-.11.11H156.6a.11.11,0,0,1-.1-.05l-3.25-5-3.25,5a.11.11,0,0,1-.1.05h-1.16a.1.1,0,0,1-.12-.11L147.8.16a.1.1,0,0,1,.12-.12h1.29a.1.1,0,0,1,.12.11L150,9.86l2.93-4.53a.11.11,0,0,1,.1-.05h.51a.11.11,0,0,1,.1.05l2.91,4.53.66-9.71A.1.1,0,0,1,157.3,0Z"/></g></g></svg>