<?xml version="1.0" encoding="utf-8"?>
<!-- Generator: Adobe Illustrator 21.0.2, SVG Export Plug-In . SVG Version: 6.00 Build 0)  -->
<svg version="1.1" id="Layer_1" xmlns="http://www.w3.org/2000/svg" xmlns:xlink="http://www.w3.org/1999/xlink" x="0px" y="0px"
	 viewBox="0 0 1306 249" style="enable-background:new 0 0 1306 249;" xml:space="preserve">
<style type="text/css">
	.st0{fill:#CCD7EE;}
	.st1{fill:#EDF3FB;}
</style>
<path class="st0" d="M34.1,191.6c0.7,0.3,1.3,0.6,1.7,0.8l1.7,0.8c1.3,0.7,2.6,1.3,3.7,1.9c2.9,1.6,5.3,3.2,7.3,5
	c5.3,4.6,8,10.3,8,16.9c0,7.2-2.4,12.9-7.2,17.1c-4.8,4.2-11.3,6.3-19.5,6.3c-6,0-11.7-1.4-17.1-4.1c-1.9-1-3.6-2.1-5.3-3.4
	c-0.6-0.5-1.2-0.9-1.8-1.4c-0.4-0.4-0.8-0.7-1.1-1.1c-0.4-0.4-0.4-0.7,0-1.1l6.5-6.3c0.3-0.3,0.7-0.3,1,0c0.3,0.2,0.6,0.5,0.9,0.8
	c0.4,0.3,0.8,0.6,1.3,0.9c1.1,0.8,2.4,1.6,3.7,2.2c3.7,1.8,7.7,2.7,11.9,2.7c10.8,0,16.2-4.2,16.2-12.7c0-3.3-1.4-6.1-4.1-8.6
	c-2.3-2.1-6.3-4.4-12-7l-0.2-0.1l-2.7-1.4l-1.4-0.6l-1.5-0.7c-1.2-0.6-2.3-1.2-3.3-1.7c-2.6-1.4-4.7-2.9-6.5-4.4
	C9.4,188.2,7,183.1,7,177c0-6.6,2.2-11.7,6.5-15.5c4.3-3.8,10.2-5.7,17.6-5.7c5.4,0,10.5,1.2,15.2,3.7c1.7,0.9,3.3,1.9,4.8,3
	c0.5,0.4,1.1,0.8,1.6,1.2c0.4,0.4,0.7,0.7,1,1c0.4,0.4,0.4,0.7,0,1.1l-3.2,3.1l-3.3,3.2c-0.3,0.3-0.7,0.3-1,0.1
	c-0.2-0.2-0.5-0.5-0.7-0.7c-0.3-0.3-0.7-0.6-1.1-0.8c-1-0.7-2.1-1.3-3.2-1.8c-3.2-1.5-6.5-2.3-10.1-2.3c-9.1,0-13.7,3.5-13.7,10.5
	c0,2.8,1.2,5.2,3.5,7.2c1.9,1.7,5.4,3.7,10.4,5.9l0.2,0.1L34.1,191.6z"/>
<path class="st0" d="M116.8,229.5c8.4,0,15.6-3.1,21.6-9.2c6-6.1,8.9-13.6,8.9-22.3c0-8.7-3-16.1-8.9-22.3c-6-6.1-13.2-9.2-21.6-9.2
	c-8.4,0-15.6,3.1-21.6,9.2c-6,6.2-8.9,13.6-8.9,22.3c0,8.7,3,16.1,8.9,22.3C101.1,226.4,108.3,229.5,116.8,229.5L116.8,229.5z
	 M116.8,155.8c11.3,0,21,4.1,29,12.4c8,8.3,12,18.2,12,29.9c0,11.6-4,21.6-12,29.9c-8,8.3-17.7,12.4-29,12.4c-11.3,0-21-4.1-29-12.4
	c-8-8.3-12-18.2-12-29.9c0-11.6,4-21.6,12-29.9C95.8,159.9,105.5,155.8,116.8,155.8L116.8,155.8z"/>
<path class="st0" d="M242.3,155.7c0.5,0,0.7,0.3,0.7,0.8v83.1c0,0.5-0.2,0.8-0.7,0.8h-4.1c-0.2,0-0.4-0.1-0.6-0.3l-43.7-60.2v59.7
	c0,0.5-0.2,0.8-0.7,0.8h-8.5c-0.5,0-0.7-0.3-0.7-0.8v-83.1c0-0.5,0.2-0.8,0.7-0.8h3.8c0.2,0,0.4,0.1,0.6,0.4l44,60.5v-60.1
	c0-0.5,0.2-0.8,0.7-0.8H242.3z"/>
<path class="st0" d="M338.2,196.6c0.5,0,0.7,0.3,0.7,0.8v28.4c0,0.2-0.1,0.4-0.2,0.5l-0.8,0.9c-7.7,8.1-16.9,12.5-27.5,13
	c-6,0.3-11.7-0.6-17.2-2.8c-5.3-2.2-9.9-5.3-14-9.4c-4-4.2-7.1-9-9.2-14.4c-2.2-5.7-3.1-11.6-2.8-17.7c0.6-11.2,4.9-20.7,12.9-28.5
	c8.1-7.8,17.5-11.6,28.5-11.5c11.1,0.1,20.5,4.2,28.4,12.3c0.3,0.4,0.3,0.7-0.1,1.1l-6.4,6.4c-0.3,0.3-0.7,0.3-1-0.1
	c-6.2-6.3-13.7-9.3-22.4-9c-7.7,0.2-14.4,3.1-20,8.7c-5.6,5.6-8.8,12.3-9.3,20.2c-0.7,9.2,2,17.2,8.1,23.9c6.1,6.7,13.5,10,22.3,10
	c7.8,0,14.5-2.7,20.3-8v-14.2h-13.3c-0.5,0-0.7-0.3-0.7-0.8v-9.2c0-0.5,0.2-0.8,0.7-0.8H338.2z"/>
<path class="st0" d="M390.4,191.6c0.7,0.3,1.3,0.6,1.7,0.8l1.7,0.8c1.3,0.7,2.6,1.3,3.7,1.9c2.9,1.6,5.3,3.2,7.3,5
	c5.3,4.6,8,10.3,8,16.9c0,7.2-2.4,12.9-7.2,17.1c-4.8,4.2-11.3,6.3-19.5,6.3c-6,0-11.7-1.4-17.1-4.1c-1.9-1-3.6-2.1-5.3-3.4
	c-0.6-0.5-1.2-0.9-1.8-1.4c-0.4-0.4-0.8-0.7-1.1-1.1c-0.4-0.4-0.4-0.7,0-1.1l6.5-6.3c0.3-0.3,0.7-0.3,1,0c0.3,0.2,0.6,0.5,0.9,0.8
	c0.4,0.3,0.8,0.6,1.3,0.9c1.1,0.8,2.4,1.6,3.7,2.2c3.7,1.8,7.7,2.7,11.9,2.7c10.8,0,16.2-4.2,16.2-12.7c0-3.3-1.4-6.1-4.1-8.6
	c-2.3-2.1-6.3-4.4-12-7l-0.2-0.1l-2.7-1.4l-1.4-0.6l-1.5-0.7c-1.2-0.6-2.3-1.2-3.3-1.7c-2.6-1.4-4.7-2.9-6.5-4.4
	c-4.8-4.2-7.2-9.3-7.2-15.4c0-6.6,2.2-11.7,6.5-15.5c4.3-3.8,10.2-5.7,17.6-5.7c5.4,0,10.5,1.2,15.2,3.7c1.7,0.9,3.3,1.9,4.8,3
	c0.5,0.4,1.1,0.8,1.6,1.2c0.4,0.4,0.7,0.7,1,1c0.4,0.4,0.4,0.7,0,1.1l-3.2,3.1l-3.3,3.2c-0.3,0.3-0.7,0.3-1,0.1
	c-0.2-0.2-0.5-0.5-0.7-0.7c-0.3-0.3-0.7-0.6-1.1-0.8c-1-0.7-2.1-1.3-3.2-1.8c-3.2-1.5-6.5-2.3-10.1-2.3c-9.1,0-13.7,3.5-13.7,10.5
	c0,2.8,1.2,5.2,3.5,7.2c1.9,1.7,5.4,3.7,10.4,5.9l0.2,0.1L390.4,191.6z"/>
<path class="st0" d="M511.6,229.5c8.4,0,15.6-3.1,21.6-9.2c6-6.1,8.9-13.6,8.9-22.3c0-8.7-3-16.1-8.9-22.3c-6-6.1-13.2-9.2-21.6-9.2
	c-8.4,0-15.6,3.1-21.6,9.2c-6,6.2-8.9,13.6-8.9,22.3c0,8.7,3,16.1,8.9,22.3C496,226.4,503.2,229.5,511.6,229.5L511.6,229.5z
	 M511.6,155.8c11.3,0,21,4.1,29,12.4c8,8.3,12,18.2,12,29.9c0,11.6-4,21.6-12,29.9c-8,8.3-17.7,12.4-29,12.4c-11.3,0-21-4.1-29-12.4
	c-8-8.3-12-18.2-12-29.9c0-11.6,4-21.6,12-29.9C490.7,159.9,500.3,155.8,511.6,155.8L511.6,155.8z"/>
<path class="st0" d="M589.3,166.5v26h31c0.5,0,0.7,0.3,0.7,0.8v9.3c0,0.5-0.2,0.8-0.7,0.8h-31v36.2c0,0.5-0.2,0.8-0.7,0.8h-9
	c-0.5,0-0.7-0.3-0.7-0.8v-83.1c0-0.5,0.2-0.8,0.7-0.8h49.8c0.5,0,0.7,0.3,0.7,0.8v9.3c0,0.5-0.2,0.8-0.7,0.8H589.3z"/>
<path class="st0" d="M746.5,155.7c0.5,0,0.7,0.3,0.7,0.8v83.1c0,0.5-0.2,0.8-0.7,0.8h-4.1c-0.2,0-0.4-0.1-0.6-0.3l-43.7-60.2v59.7
	c0,0.5-0.2,0.8-0.7,0.8H689c-0.5,0-0.7-0.3-0.7-0.8v-83.1c0-0.5,0.2-0.8,0.7-0.8h3.8c0.2,0,0.4,0.1,0.6,0.4l44,60.5v-60.1
	c0-0.5,0.2-0.8,0.7-0.8H746.5z"/>
<path class="st0" d="M831,155.8c0.5,0,0.7,0.3,0.7,0.8v9.2c0,0.5-0.2,0.8-0.7,0.8h-43.6v26.2H819c0.5,0,0.7,0.3,0.7,0.8v9.2
	c0,0.5-0.2,0.8-0.7,0.8h-31.5v26.2H831c0.5,0,0.7,0.3,0.7,0.8v9.2c0,0.5-0.2,0.8-0.7,0.8h-53.2c-0.5,0-0.7-0.3-0.7-0.8v-83
	c0-0.5,0.2-0.8,0.7-0.8H831z"/>
<path class="st0" d="M923.7,155.8c0.5,0,0.8,0.3,0.7,0.8l-5.5,82.9c0,0.5-0.3,0.7-0.7,0.7h-7.4c-0.3,0-0.5-0.1-0.6-0.4l-21.1-33.7
	L868,240c-0.2,0.2-0.4,0.4-0.6,0.4h-7.5c-0.5,0-0.7-0.2-0.7-0.7l-5.5-82.9c0-0.6,0.2-0.8,0.7-0.8h8.4c0.5,0,0.7,0.2,0.7,0.7
	l4.3,65.1l19-30.3c0.2-0.2,0.4-0.4,0.6-0.4h3.3c0.3,0,0.5,0.1,0.6,0.4l18.9,30.3l4.3-65c0-0.5,0.3-0.7,0.7-0.7H923.7z"/>
<path class="st0" d="M1040.7,155.8c0.3,0,0.5,0.1,0.6,0.4c0.2,0.2,0.2,0.5,0,0.8l-24.3,40v42.6c0,0.5-0.2,0.8-0.7,0.8h-8.5
	c-0.5,0-0.7-0.3-0.7-0.8v-42.7L982.7,157c-0.2-0.3-0.2-0.5,0-0.8c0.1-0.3,0.3-0.4,0.6-0.4h10c0.3,0,0.5,0.1,0.6,0.4l18,29.6l18-29.6
	c0.2-0.2,0.4-0.4,0.6-0.4H1040.7z"/>
<path class="st0" d="M1098.3,229.5c8.4,0,15.6-3.1,21.6-9.2c6-6.1,8.9-13.6,8.9-22.3c0-8.7-3-16.1-8.9-22.3
	c-6-6.1-13.2-9.2-21.6-9.2c-8.4,0-15.6,3.1-21.6,9.2c-6,6.2-8.9,13.6-8.9,22.3c0,8.7,3,16.1,8.9,22.3
	C1082.6,226.4,1089.8,229.5,1098.3,229.5L1098.3,229.5z M1098.3,155.8c11.3,0,21,4.1,29,12.4c8,8.3,12,18.2,12,29.9
	c0,11.6-4,21.6-12,29.9c-8,8.3-17.7,12.4-29,12.4c-11.3,0-21-4.1-29-12.4c-8-8.3-12-18.2-12-29.9c0-11.6,4-21.6,12-29.9
	C1077.3,159.9,1087,155.8,1098.3,155.8L1098.3,155.8z"/>
<path class="st0" d="M1196.3,192.9c3.5,0,6.6-1.3,9.1-3.9c2.5-2.6,3.8-5.7,3.8-9.3c0-3.7-1.3-6.8-3.8-9.4c-2.5-2.6-5.6-3.8-9.1-3.8
	h-20.4v26.4H1196.3z M1220.7,239.2c0.1,0.2,0.1,0.5-0.1,0.8c-0.1,0.2-0.3,0.4-0.6,0.4h-10.2c-0.3,0-0.5-0.1-0.6-0.4l-19.2-36.2
	l0.1-0.1h-14.1v35.7c0,0.5-0.2,0.8-0.7,0.8h-8.9c-0.5,0-0.7-0.3-0.7-0.8v-82.9c0-0.5,0.2-0.8,0.7-0.8h30.1c6.6,0,12.1,2.4,16.7,7.3
	c4.6,4.8,6.8,10.6,6.6,17.4c-0.2,5.5-2,10.3-5.4,14.5c-3.4,4.1-7.7,6.8-12.8,8L1220.7,239.2z"/>
<path class="st0" d="M1303.2,239c0.3,0.2,0.3,0.5,0.2,0.8c-0.1,0.3-0.3,0.5-0.7,0.5h-13.1c-0.2,0-0.4-0.1-0.5-0.2l-33.8-32.6v32.1
	c0,0.5-0.2,0.8-0.7,0.8h-9c-0.5,0-0.7-0.3-0.7-0.8v-83.1c0-0.5,0.2-0.8,0.7-0.8h9c0.5,0,0.7,0.3,0.7,0.8v31.4l31-31.9
	c0.2-0.2,0.3-0.2,0.5-0.2h12.7c0.3,0,0.6,0.2,0.7,0.5c0.2,0.3,0.1,0.6-0.1,0.8l-39.6,40.7L1303.2,239z"/>
<path class="st1" d="M67.8,4.6c0.6,0,0.9,0.3,0.9,0.9v10.6c0,0.6-0.3,0.9-0.9,0.9H42.4v83.7c0,0.6-0.3,0.9-0.9,0.9H31
	c-0.6,0-0.9-0.3-0.9-0.9V16.9H4.6c-0.6,0-0.9-0.3-0.9-0.9V5.5c0-0.6,0.3-0.9,0.9-0.9H67.8z"/>
<path class="st1" d="M177.3,4.6c0.6,0,0.9,0.3,0.9,0.9v95.2c0,0.6-0.3,0.9-0.9,0.9h-10.6c-0.6,0-0.9-0.3-0.9-0.9V59.1h-45.3v41.4
	c0,0.6-0.3,0.9-0.9,0.9H109c-0.6,0-0.9-0.3-0.9-0.9V5.4c0-0.6,0.3-0.9,0.9-0.9h10.6c0.6,0,0.9,0.3,0.9,0.9v41.4h45.3V5.5
	c0-0.6,0.3-0.9,0.9-0.9H177.3z"/>
<path class="st1" d="M238.7,4.6c0.6,0,0.9,0.3,0.9,0.9v95.2c0,0.6-0.3,0.9-0.9,0.9h-10.6c-0.6,0-0.9-0.3-0.9-0.9V5.5
	c0-0.6,0.3-0.9,0.9-0.9H238.7z"/>
<path class="st1" d="M317.6,45.6c0.9,0.4,1.5,0.7,2,0.9l2,0.9c1.6,0.8,3,1.5,4.3,2.2c3.4,1.8,6.2,3.7,8.6,5.7
	c6.3,5.3,9.4,11.8,9.4,19.4c0,8.3-2.8,14.8-8.5,19.6c-5.6,4.8-13.3,7.2-23,7.2c-7.1,0-13.9-1.6-20.2-4.7c-2.2-1.1-4.3-2.4-6.2-3.9
	c-0.7-0.5-1.4-1.1-2.1-1.6c-0.5-0.4-0.9-0.8-1.4-1.2c-0.5-0.4-0.5-0.8,0-1.3l7.7-7.2c0.4-0.4,0.8-0.4,1.2,0c0.3,0.3,0.7,0.6,1,0.9
	c0.5,0.4,0.9,0.7,1.5,1.1c1.4,0.9,2.8,1.8,4.4,2.6c4.4,2.1,9,3.1,14,3.1c12.8,0,19.2-4.9,19.2-14.6c0-3.7-1.6-7-4.9-9.8
	c-2.8-2.4-7.5-5.1-14.1-8l-0.2-0.1l-3.2-1.6l-1.7-0.7l-1.8-0.8c-1.4-0.7-2.8-1.3-3.9-2c-3-1.6-5.6-3.3-7.7-5.1
	c-5.6-4.8-8.5-10.7-8.5-17.7c0-7.5,2.5-13.5,7.6-17.8c5.1-4.4,12-6.6,20.8-6.6c6.4,0,12.4,1.4,18,4.2c2,1,3.9,2.1,5.6,3.5
	c0.6,0.5,1.3,0.9,1.9,1.4c0.5,0.4,0.9,0.8,1.2,1.2c0.5,0.4,0.5,0.8,0,1.3l-3.8,3.6l-3.9,3.7c-0.4,0.4-0.8,0.4-1.2,0.1
	c-0.3-0.3-0.6-0.5-0.9-0.8c-0.4-0.3-0.8-0.6-1.3-0.9c-1.2-0.8-2.5-1.5-3.8-2.1c-3.7-1.8-7.7-2.6-11.9-2.6c-10.8,0-16.2,4-16.2,12
	c0,3.2,1.4,5.9,4.1,8.3c2.3,2,6.4,4.2,12.3,6.8l0.2,0.1L317.6,45.6z"/>
<path class="st1" d="M433.7,4.6c0.6,0,0.9,0.3,0.9,0.9v95.2c0,0.6-0.3,0.9-0.9,0.9h-10.6c-0.6,0-0.9-0.3-0.9-0.9V5.5
	c0-0.6,0.3-0.9,0.9-0.9H433.7z"/>
<path class="st1" d="M512.7,45.6c0.9,0.4,1.5,0.7,2,0.9l2,0.9c1.6,0.8,3,1.5,4.3,2.2c3.4,1.8,6.2,3.7,8.6,5.7
	c6.3,5.3,9.4,11.8,9.4,19.4c0,8.3-2.8,14.8-8.5,19.6c-5.6,4.8-13.3,7.2-23,7.2c-7.1,0-13.9-1.6-20.2-4.7c-2.2-1.1-4.3-2.4-6.2-3.9
	c-0.7-0.5-1.4-1.1-2.1-1.6c-0.5-0.4-0.9-0.8-1.4-1.2c-0.5-0.4-0.5-0.8,0-1.3l7.7-7.2c0.4-0.4,0.8-0.4,1.2,0c0.3,0.3,0.7,0.6,1,0.9
	c0.5,0.4,0.9,0.7,1.5,1.1c1.4,0.9,2.8,1.8,4.4,2.6c4.4,2.1,9,3.1,14,3.1c12.8,0,19.2-4.9,19.2-14.6c0-3.7-1.6-7-4.9-9.8
	c-2.8-2.4-7.5-5.1-14.1-8l-0.2-0.1l-3.2-1.6l-1.7-0.7l-1.8-0.8c-1.4-0.7-2.8-1.3-3.9-2c-3-1.6-5.6-3.3-7.7-5.1
	c-5.6-4.8-8.5-10.7-8.5-17.7c0-7.5,2.5-13.5,7.6-17.8c5.1-4.4,12-6.6,20.8-6.6c6.4,0,12.4,1.4,18,4.2c2,1,3.9,2.1,5.6,3.5
	c0.6,0.5,1.3,0.9,1.9,1.4c0.5,0.4,0.9,0.8,1.2,1.2c0.5,0.4,0.5,0.8,0,1.3l-3.8,3.6l-3.9,3.7c-0.4,0.4-0.8,0.4-1.2,0.1
	c-0.3-0.3-0.6-0.5-0.9-0.8c-0.4-0.3-0.8-0.6-1.3-0.9c-1.2-0.8-2.5-1.5-3.8-2.1c-3.7-1.8-7.7-2.6-11.9-2.6c-10.8,0-16.2,4-16.2,12
	c0,3.2,1.4,5.9,4.1,8.3c2.3,2,6.4,4.2,12.3,6.8l0.2,0.1L512.7,45.6z"/>
<path class="st1" d="M695.6,4.6c0.6,0,0.9,0.3,0.9,0.9v95.2c0,0.6-0.3,0.9-0.9,0.9h-10c-0.6,0-0.9-0.3-0.9-0.9V28.9l-27.3,30.5
	c-0.5,0.5-0.9,0.5-1.3,0L629,28.9v71.8c0,0.6-0.3,0.9-0.9,0.9h-10c-0.6,0-0.9-0.3-0.9-0.9V5.5c0-0.6,0.3-0.9,0.9-0.9h3.9
	c0.7,0,1.3,0.3,1.8,0.8l33,37l33.1-37c0.5-0.5,1.1-0.8,1.8-0.8H695.6z"/>
<path class="st1" d="M801.1,4.7c0.3,0,0.6,0.2,0.7,0.5c0.2,0.3,0.2,0.6,0,0.9L773,51.9v48.8c0,0.6-0.3,0.9-0.9,0.9h-10
	c-0.6,0-0.9-0.3-0.9-0.9V51.7L732.6,6.1c-0.2-0.3-0.2-0.6,0-0.9c0.1-0.3,0.4-0.5,0.7-0.5h11.8c0.4,0,0.6,0.1,0.7,0.4L767.2,39
	l21.3-33.9c0.2-0.3,0.4-0.4,0.7-0.4H801.1z"/>
<path class="st1" d="M943.3,4.6c0.6,0,0.9,0.3,0.9,0.9v10.6c0,0.6-0.3,0.9-0.9,0.9h-25.4v83.7c0,0.6-0.3,0.9-0.9,0.9h-10.6
	c-0.6,0-0.9-0.3-0.9-0.9V16.9h-25.4c-0.6,0-0.9-0.3-0.9-0.9V5.5c0-0.6,0.3-0.9,0.9-0.9H943.3z"/>
<path class="st1" d="M1025.1,89.2c9.9,0,18.4-3.5,25.5-10.6c7-7,10.6-15.5,10.6-25.5c0-9.9-3.5-18.4-10.6-25.5
	c-7.1-7-15.6-10.6-25.5-10.6c-10,0-18.5,3.5-25.5,10.6c-7,7.1-10.6,15.6-10.6,25.5c0,10,3.5,18.5,10.6,25.5
	C1006.6,85.7,1015.1,89.2,1025.1,89.2L1025.1,89.2z M1025.1,4.6c13.4,0,24.8,4.7,34.2,14.2s14.2,20.9,14.2,34.3
	c0,13.4-4.7,24.8-14.2,34.3s-20.9,14.2-34.2,14.2c-13.4,0-24.8-4.7-34.2-14.2c-9.5-9.5-14.2-20.9-14.2-34.3
	c0-13.4,4.7-24.8,14.2-34.3C1000.3,9.4,1011.7,4.6,1025.1,4.6L1025.1,4.6z"/>
<path class="st1" d="M1185.8,4.7c0.6,0,0.9,0.3,0.9,0.9l-6.5,95.1c0,0.5-0.3,0.8-0.9,0.8h-8.7c-0.3,0-0.6-0.1-0.7-0.4l-24.9-38.7
	l-24.9,38.7c-0.2,0.3-0.4,0.4-0.7,0.4h-8.9c-0.5,0-0.8-0.3-0.9-0.8l-6.5-95.1c0-0.6,0.2-0.9,0.9-0.9h9.9c0.5,0,0.8,0.3,0.9,0.8
	l5.1,74.6l22.5-34.8c0.2-0.3,0.4-0.4,0.7-0.4h3.9c0.3,0,0.6,0.1,0.7,0.4L1170,80l5.1-74.5c0-0.5,0.3-0.8,0.9-0.8H1185.8z"/>
<path class="st1" d="M1300.4,4.6c0.6,0,0.9,0.3,0.9,0.9v95.2c0,0.6-0.3,0.9-0.9,0.9h-4.8c-0.3,0-0.5-0.1-0.7-0.3l-51.6-69v68.4
	c0,0.6-0.3,0.9-0.9,0.9h-10c-0.6,0-0.9-0.3-0.9-0.9V5.4c0-0.6,0.3-0.9,0.9-0.9h4.5c0.3,0,0.5,0.1,0.7,0.4l52,69.4V5.4
	c0-0.6,0.3-0.9,0.9-0.9H1300.4z"/>
</svg>
